<?xml version="1.0" encoding="UTF-8"?>
<!DOCTYPE svg PUBLIC "-//W3C//DTD SVG 1.1//EN" "http://www.w3.org/Graphics/SVG/1.1/DTD/svg11.dtd">
<svg xmlns="http://www.w3.org/2000/svg" version="1.1" width="64px" height="64px" style="shape-rendering:geometricPrecision; text-rendering:geometricPrecision; image-rendering:optimizeQuality; fill-rule:evenodd; clip-rule:evenodd" xmlns:xlink="http://www.w3.org/1999/xlink">
<g><path style="opacity:0.829" fill="#000000" d="M 23.5,2.5 C 41.3623,-0.158261 53.529,6.84174 60,23.5C 63.1496,41.3747 56.3163,53.5413 39.5,60C 21.6253,63.1496 9.45866,56.3163 3,39.5C -0.0230431,21.535 6.81029,9.20168 23.5,2.5 Z M 24.5,6.5 C 29.5649,6.21903 34.5649,6.55237 39.5,7.5C 40.6808,9.1353 40.6808,10.802 39.5,12.5C 30.9765,14.4878 29.3098,18.9878 34.5,26C 36.1667,26.6667 37.8333,26.6667 39.5,26C 41.1233,23.9205 42.6233,21.7538 44,19.5C 46.393,24.9307 50.5596,26.9307 56.5,25.5C 58.5167,38.9673 53.5167,48.8006 41.5,55C 36.5988,56.3254 31.5988,56.8254 26.5,56.5C 26.822,54.2776 26.1554,52.4443 24.5,51C 29.0464,45.3726 28.3797,40.5393 22.5,36.5C 24.7702,34.3975 26.4369,31.8975 27.5,29C 26.4068,24.7944 23.7402,23.4611 19.5,25C 17.9471,27.6549 16.7804,30.4883 16,33.5C 13.8737,37.0136 11.7071,37.1803 9.5,34C 11.229,32.2111 11.8957,30.0444 11.5,27.5C 9.83333,27.5 8.16667,27.5 6.5,27.5C 8.93283,17.4033 14.9328,10.4033 24.5,6.5 Z"/></g>
<g><path style="opacity:0.805" fill="#000000" d="M 45.5,34.5 C 52.6217,33.4397 54.1217,35.7731 50,41.5C 42.8238,46.61 37.9904,44.9433 35.5,36.5C 38.1873,36.6641 40.854,36.4974 43.5,36C 44.4158,35.7216 45.0825,35.2216 45.5,34.5 Z"/></g>
</svg>
